<svg xmlns="http://www.w3.org/2000/svg" xmlns:xlink="http://www.w3.org/1999/xlink" viewBox="0 0 56 34"><defs><style>.cls-1{fill:url(#linear-gradient);}.cls-2,.cls-4{fill:#fff;}.cls-3{fill:#006279;}.cls-4{font-size:8px;font-family:MADEEvolveSansEVO-Medium, MADE Evolve Sans EVO;font-weight:500;}.cls-5{letter-spacing:-0.01em;}.cls-6,.cls-7{font-family:Equinox-Bold, Equinox;font-weight:700;}.cls-7{fill:#e84055;}</style><linearGradient id="linear-gradient" x1="30.95" y1="15.78" x2="31.04" y2="42.48" gradientUnits="userSpaceOnUse"><stop offset="0"/><stop offset="1" stop-color="#240100"/></linearGradient></defs><title>logo</title><g id="Layer_1" data-name="Layer 1"><path class="cls-1" d="M28.43,17a1,1,0,0,1,0-2H11a2,2,0,0,0-2,2V43H53V17Z" transform="translate(-4 -15)"/><path class="cls-2" d="M32,21a1,1,0,0,1,0-2h0a1,1,0,0,1,0,2Z" transform="translate(-4 -15)"/><path d="M36,45a1,1,0,0,1-1,1H29a1,1,0,0,1-1-1H6.17A3,3,0,0,0,9,47H55a3,3,0,0,0,2.83-2Z" transform="translate(-4 -15)"/><path class="cls-3" d="M59,43H55V17a2,2,0,0,0-2-2H28.43a1,1,0,0,0,0,2H53V43H11V17H24.43a1,1,0,0,0,0-2H11a2,2,0,0,0-2,2V43H5a1,1,0,0,0-1,1,5,5,0,0,0,5,5H55a5,5,0,0,0,5-5A1,1,0,0,0,59,43Zm-4,4H9a3,3,0,0,1-2.83-2H28a1,1,0,0,0,1,1h6a1,1,0,0,0,1-1H57.83A3,3,0,0,1,55,47Z" transform="translate(-4 -15)"/></g><g id="red"><text class="cls-4" transform="translate(8.72 18.76)"><tspan class="cls-5">C</tspan><tspan x="5.54" y="0">O</tspan><tspan class="cls-6" x="11.62" y="0">DE</tspan><tspan class="cls-7" x="21.64" y="0" xml:space="preserve"> RED</tspan></text></g></svg>